<svg width="106" height="42" viewBox="0 0 106 42" fill="none" xmlns="http://www.w3.org/2000/svg">
<path d="M21.6016 21.0414C21.6016 19.5446 22.4795 18.502 23.8213 18.502C25.163 18.502 26.0409 19.5446 26.0409 21.0414C26.0409 22.5215 25.163 23.5809 23.8213 23.5809C22.4795 23.5809 21.6016 22.5215 21.6016 21.0414Z" fill="#152C4F"/>
<path d="M32.9493 18.4346C31.6739 18.4346 30.8125 19.4436 30.8125 20.8227C30.8125 22.2186 31.6904 23.2613 32.9493 23.2613C34.3407 23.2613 35.2684 22.2018 35.2684 20.8227C35.2684 19.4604 34.3407 18.4346 32.9493 18.4346Z" fill="#152C4F"/>
<path d="M40.3438 21.0414C40.3438 19.5446 41.2217 18.502 42.5635 18.502C43.9052 18.502 44.7831 19.5446 44.7831 21.0414C44.7831 22.5215 43.9052 23.5809 42.5635 23.5809C41.2217 23.5809 40.3438 22.5215 40.3438 21.0414Z" fill="#152C4F"/>
<path d="M53.8438 21.058C53.8438 19.5612 54.7382 18.5186 56.1462 18.5186C57.5542 18.5186 58.399 19.5781 58.399 21.058C58.399 22.538 57.5542 23.5807 56.1462 23.5807C54.7382 23.5807 53.8438 22.5548 53.8438 21.058Z" fill="#152C4F"/>
<path fill-rule="evenodd" clip-rule="evenodd" d="M53.0006 38.6359C81.1457 38.6359 103.962 30.5075 103.962 20.4805C103.962 10.4536 81.1457 2.3252 53.0006 2.3252C24.8553 2.3252 2.03906 10.4536 2.03906 20.4805C2.03906 30.5075 24.8553 38.6359 53.0006 38.6359ZM18.3292 25.2122V12.6997H16.3083V25.2122H18.3292ZM19.5661 21.0413C19.5661 23.5976 21.2557 25.414 23.8232 25.414C26.3908 25.414 28.0804 23.5976 28.0804 21.0413C28.0804 18.485 26.3908 16.6687 23.8232 16.6687C21.2557 16.6687 19.5661 18.485 19.5661 21.0413ZM32.6031 25.044C30.3006 25.044 28.76 23.2949 28.76 20.8731C28.76 18.4346 30.3337 16.635 32.6693 16.635C33.8786 16.635 34.9055 17.1564 35.4025 18.031L35.5184 16.9041H37.3074V24.7917C37.3074 27.533 35.6179 29.2989 32.9675 29.2989C30.7147 29.2989 29.0748 27.8862 28.8098 25.7167H30.8472C30.9631 26.8099 31.8246 27.4321 33.0834 27.4321C34.4914 27.4321 35.3363 26.5239 35.3363 25.1617V23.749C34.8227 24.5562 33.7957 25.044 32.6031 25.044ZM38.3075 21.0413C38.3075 23.5976 39.9972 25.414 42.5647 25.414C45.1322 25.414 46.8218 23.5976 46.8218 21.0413C46.8218 18.485 45.1322 16.6687 42.5647 16.6687C39.9972 16.6687 38.3075 18.485 38.3075 21.0413ZM50.2181 13.9779C50.2181 14.6674 49.6715 15.2056 49.0089 15.2056C48.3297 15.2056 47.8162 14.6674 47.8162 13.9779C47.8162 13.3051 48.3297 12.7669 49.0089 12.7669C49.6715 12.7669 50.2181 13.3051 50.2181 13.9779ZM50.0193 16.9041V25.2122H47.9985V16.9041H50.0193ZM51.7898 29.0634H53.761V24.0685C54.2745 24.9262 55.3843 25.4308 56.6102 25.4308C59.0286 25.4308 60.4697 23.5472 60.4366 20.9572C60.3869 18.3505 58.9126 16.6519 56.5936 16.6519C55.3512 16.6519 54.2248 17.2069 53.7279 18.1655L53.6119 16.9041H51.7898V29.0634ZM64.2295 25.4308C62.2749 25.4308 61.016 24.3712 60.9497 22.7231H62.7884C62.7884 23.4463 63.3019 23.8667 64.1964 23.8667C64.9418 23.8667 65.5547 23.564 65.5547 22.9081C65.5547 22.4372 65.2234 22.1849 64.6933 22.0336L63.2688 21.6636C61.6951 21.2431 61.0822 20.3518 61.0822 19.2754C61.0822 17.6946 62.3909 16.6519 64.1467 16.6519C65.9191 16.6519 67.1283 17.6946 67.1946 19.3428H65.356C65.356 18.6196 64.859 18.1823 64.097 18.1823C63.3682 18.1823 62.9209 18.5859 62.9209 19.1578C62.9209 19.6959 63.335 19.9145 63.9479 20.0827L65.3891 20.4359C66.7308 20.7722 67.4596 21.5795 67.4596 22.7736C67.4596 24.3881 66.151 25.4308 64.2295 25.4308ZM71.6516 25.4308C72.7611 25.4308 73.8211 24.9094 74.3016 24.1358L74.4345 25.2122H76.3227V16.9041H74.3016V21.26C74.3016 22.7568 73.7384 23.5976 72.4134 23.5976C71.3867 23.5976 70.6743 23.0931 70.6743 21.3777V16.9041H68.6532V22.1008C68.6532 24.0854 69.7133 25.4308 71.6516 25.4308ZM80.1274 20.4359V25.2122H78.1063V16.9041H79.9613L80.061 17.846C80.5415 17.106 81.4029 16.6519 82.3633 16.6519C83.7215 16.6519 84.6162 17.2573 85.0635 18.2327C85.4613 17.2573 86.4386 16.6519 87.681 16.6519C89.6688 16.6519 90.7119 17.8628 90.7119 19.78V25.2122H88.7572V20.2509C88.7572 19.0737 88.1283 18.4514 87.151 18.4514C86.1899 18.4514 85.4281 19.0905 85.4281 20.4527V25.2122H83.4565V20.2509C83.4565 19.0737 82.8276 18.4514 81.8665 18.4514C80.9062 18.4514 80.1274 19.0905 80.1274 20.4359Z" fill="#152C4F"/>
</svg>
