<svg width="139" height="53" viewBox="0 0 139 53" fill="none" xmlns="http://www.w3.org/2000/svg">
<g clip-path="url(#clip0_996_3780)">
<path d="M73.3521 15.9706C73.3521 17.5321 72.0912 18.79 70.5258 18.79C68.9605 18.79 67.6996 17.5321 67.6996 15.9706C67.6996 14.409 68.9171 13.1511 70.5258 13.1511C72.1346 13.1945 73.3521 14.4524 73.3521 15.9706ZM61.6992 21.6529C61.6992 21.9132 61.6992 22.3469 61.6992 22.3469C61.6992 22.3469 60.3513 20.6119 57.4816 20.6119C52.7421 20.6119 49.0463 24.2121 49.0463 29.2005C49.0463 34.1454 52.6987 37.789 57.4816 37.789C60.3948 37.789 61.6992 36.0106 61.6992 36.0106V36.748C61.6992 37.095 61.9601 37.3553 62.3079 37.3553H65.8299V21.0456C65.8299 21.0456 62.6123 21.0456 62.3079 21.0456C61.9601 21.0456 61.6992 21.3493 61.6992 21.6529ZM61.6992 32.1067C61.047 33.061 59.7426 33.8851 58.1773 33.8851C55.3945 33.8851 53.2639 32.1501 53.2639 29.2005C53.2639 26.2508 55.3945 24.5158 58.1773 24.5158C59.6991 24.5158 61.0905 25.3833 61.6992 26.2942V32.1067ZM68.4388 21.0456H72.6129V37.3553H68.4388V21.0456ZM130.79 20.6119C127.921 20.6119 126.573 22.3469 126.573 22.3469V13.1945H122.399V37.3553C122.399 37.3553 125.616 37.3553 125.921 37.3553C126.268 37.3553 126.529 37.0516 126.529 36.748V36.0106C126.529 36.0106 127.877 37.789 130.747 37.789C135.486 37.789 139.182 34.1454 139.182 29.2005C139.182 24.2555 135.486 20.6119 130.79 20.6119ZM130.095 33.8418C128.486 33.8418 127.225 33.0176 126.573 32.0633V26.2508C127.225 25.3833 128.616 24.4724 130.095 24.4724C132.878 24.4724 135.008 26.2075 135.008 29.1571C135.008 32.1067 132.878 33.8418 130.095 33.8418ZM120.225 27.6823V37.3987H116.05V28.1594C116.05 25.4701 115.181 24.3856 112.833 24.3856C111.572 24.3856 110.267 25.0363 109.441 25.9906V37.3553H105.267V21.0456H108.572C108.92 21.0456 109.18 21.3493 109.18 21.6529V22.3469C110.398 21.089 112.007 20.6119 113.615 20.6119C115.442 20.6119 116.964 21.1324 118.181 22.1734C119.659 23.388 120.225 24.9495 120.225 27.6823ZM95.1361 20.6119C92.2663 20.6119 90.9184 22.3469 90.9184 22.3469V13.1945H86.7443V37.3553C86.7443 37.3553 89.9618 37.3553 90.2662 37.3553C90.6141 37.3553 90.8749 37.0516 90.8749 36.748V36.0106C90.8749 36.0106 92.2229 37.789 95.0926 37.789C99.832 37.789 103.528 34.1454 103.528 29.2005C103.571 24.2555 99.8755 20.6119 95.1361 20.6119ZM94.4404 33.8418C92.8316 33.8418 91.5706 33.0176 90.9184 32.0633V26.2508C91.5706 25.3833 92.962 24.4724 94.4404 24.4724C97.2232 24.4724 99.3537 26.2075 99.3537 29.1571C99.3537 32.1067 97.2232 33.8418 94.4404 33.8418ZM83.1353 20.6119C84.3963 20.6119 85.0485 20.8288 85.0485 20.8288V24.6893C85.0485 24.6893 81.57 23.5181 79.396 25.9906V37.3987H75.2218V21.0456C75.2218 21.0456 78.4394 21.0456 78.7438 21.0456C79.0916 21.0456 79.3525 21.3493 79.3525 21.6529V22.3469C80.1351 21.436 81.8309 20.6119 83.1353 20.6119ZM39.7848 35.8805C39.5674 35.36 39.35 34.7961 39.1326 34.3189C38.7847 33.5381 38.4369 32.8007 38.1325 32.1067L38.089 32.0633C35.0889 25.5568 31.8713 18.9636 28.4798 12.457L28.3493 12.1968C28.0015 11.5461 27.6536 10.8521 27.3058 10.1581C26.871 9.3773 26.4361 8.55314 25.7405 7.77236C24.3491 6.0373 22.3489 5.08301 20.2184 5.08301C18.0443 5.08301 16.0877 6.0373 14.6528 7.68561C14.0006 8.46639 13.5223 9.29055 13.0875 10.0713C12.7396 10.7654 12.3918 11.4594 12.0439 12.11L11.9135 12.3703C8.56547 18.8768 5.3044 25.4701 2.30421 31.9766L2.26073 32.0633C1.95636 32.7573 1.60851 33.4948 1.26067 34.2755C1.04326 34.7527 0.825856 35.2732 0.608451 35.8371C0.0431981 37.442 -0.130726 38.9602 0.0866791 40.5218C0.56497 43.775 2.73902 46.5078 5.73921 47.7223C6.86971 48.1995 8.0437 48.4163 9.26116 48.4163C9.60901 48.4163 10.0438 48.373 10.3917 48.3296C11.8265 48.1561 13.3049 47.6789 14.7398 46.8548C16.5225 45.8571 18.2182 44.4257 20.1314 42.3436C22.0446 44.4257 23.7838 45.8571 25.523 46.8548C26.9579 47.6789 28.4363 48.1561 29.8711 48.3296C30.219 48.373 30.6538 48.4163 31.0016 48.4163C32.2191 48.4163 33.4366 48.1995 34.5236 47.7223C37.5673 46.5078 39.6978 43.7317 40.1761 40.5218C40.524 39.0036 40.3501 37.4854 39.7848 35.8805ZM20.1749 38.1361C17.8269 35.1864 16.3051 32.4103 15.7833 30.068C15.5659 29.0703 15.5224 28.2028 15.6529 27.422C15.7398 26.728 16.0007 26.1207 16.3486 25.6002C17.1747 24.429 18.5661 23.6916 20.1749 23.6916C21.7837 23.6916 23.2186 24.3856 24.0012 25.6002C24.3491 26.1207 24.6099 26.728 24.6969 27.422C24.8274 28.2028 24.7839 29.1137 24.5665 30.068C24.0447 32.367 22.5229 35.1431 20.1749 38.1361ZM37.5238 40.1748C37.2194 42.4304 35.6976 44.3823 33.567 45.2498C32.5235 45.6836 31.393 45.8137 30.2625 45.6836C29.1754 45.5535 28.0884 45.2065 26.9579 44.5558C25.3926 43.6883 23.8273 42.3436 22.0011 40.3483C24.8708 36.8348 26.6101 33.6249 27.2623 30.762C27.5667 29.4173 27.6101 28.2028 27.4797 27.075C27.3058 25.9906 26.9144 24.9929 26.3057 24.1254C24.9578 22.1734 22.6968 21.0456 20.1749 21.0456C17.653 21.0456 15.392 22.2168 14.0441 24.1254C13.4353 24.9929 13.044 25.9906 12.8701 27.075C12.6962 28.2028 12.7396 29.4607 13.0875 30.762C13.7397 33.6249 15.5224 36.8781 18.3487 40.3917C16.566 42.387 14.9572 43.7317 13.3919 44.5992C12.2614 45.2498 11.1743 45.5969 10.0873 45.727C8.91332 45.8571 7.78281 45.6836 6.78275 45.2932C4.65218 44.4257 3.13035 42.4737 2.82598 40.2181C2.69554 39.1337 2.7825 38.0493 3.21731 36.8348C3.34775 36.401 3.56516 35.9672 3.78256 35.4467C4.08693 34.7527 4.43478 34.0153 4.78262 33.2779L4.82611 33.1911C7.82629 26.728 11.0439 20.1347 14.3919 13.715L14.5224 13.4547C14.8702 12.8041 15.2181 12.11 15.5659 11.4594C15.9138 10.7654 16.3051 10.1147 16.7834 9.55081C17.6965 8.50977 18.9139 7.94587 20.2619 7.94587C21.6098 7.94587 22.8272 8.50977 23.7403 9.55081C24.2186 10.1147 24.6099 10.7654 24.9578 11.4594C25.3056 12.11 25.6535 12.8041 26.0013 13.4547L26.1318 13.715C29.4363 20.1781 32.6539 26.7714 35.6541 33.2345V33.2779C36.002 33.9719 36.3063 34.7527 36.6542 35.4467C36.8716 35.9672 37.089 36.401 37.2194 36.8348C37.5673 37.9626 37.6977 39.047 37.5238 40.1748Z" fill="#FF5A5F"/>
</g>
<defs>
<clipPath id="clip0_996_3780">
<rect width="139" height="52" fill="white" transform="translate(0 0.75)"/>
</clipPath>
</defs>
</svg>
