<svg width="120" height="53" viewBox="0 0 120 53" fill="none" xmlns="http://www.w3.org/2000/svg">
<path fill-rule="evenodd" clip-rule="evenodd" d="M74.1126 41.707C67.1705 46.7883 57.1084 49.4994 48.4451 49.4994C36.2978 49.4994 25.3621 45.0377 17.0888 37.6171C16.4388 37.0336 17.0212 36.2384 17.8012 36.6928C26.7297 41.8516 37.7694 44.9551 49.1731 44.9551C56.864 44.9551 65.3245 43.3749 73.1038 40.0958C74.279 39.6001 75.2618 40.8601 74.1126 41.707Z" fill="#FF9900"/>
<path fill-rule="evenodd" clip-rule="evenodd" d="M76.9987 38.4279C76.1147 37.3022 71.1331 37.896 68.8971 38.1594C68.2159 38.242 68.1119 37.6533 68.7255 37.2299C72.6931 34.4568 79.2035 35.2573 79.9627 36.1868C80.7219 37.1214 79.7651 43.6022 76.0367 46.6954C75.4647 47.1705 74.9187 46.9174 75.1735 46.2874C76.0107 44.2115 77.8879 39.5588 76.9987 38.4279Z" fill="#FF9900"/>
<path fill-rule="evenodd" clip-rule="evenodd" d="M69.0516 17.6539V14.9584C69.0516 14.5504 69.3636 14.2767 69.738 14.2767H81.8905C82.2805 14.2767 82.5925 14.5556 82.5925 14.9584V17.2666C82.5873 17.6539 82.2597 18.16 81.6773 18.9604L75.3801 27.8889C77.7201 27.8321 80.1901 28.1781 82.3117 29.3658C82.7901 29.6343 82.9201 30.0267 82.9565 30.414V33.2904C82.9565 33.6828 82.5197 34.1424 82.0621 33.9049C78.3233 31.9581 73.3572 31.7463 69.2232 33.9255C68.802 34.1527 68.36 33.6983 68.36 33.3059V30.5741C68.36 30.1352 68.3652 29.3864 68.8072 28.7203L76.1029 18.3304H69.7536C69.3636 18.3304 69.0516 18.0567 69.0516 17.6539Z" fill="black"/>
<path fill-rule="evenodd" clip-rule="evenodd" d="M24.7211 34.4729H21.0239C20.6703 34.4471 20.3895 34.1838 20.3635 33.8481V15.0049C20.3635 14.6279 20.6807 14.3284 21.0759 14.3284H24.5235C24.8823 14.3439 25.1683 14.6176 25.1943 14.9584V17.4216H25.2619C26.1615 15.041 27.8515 13.9308 30.1292 13.9308C32.4432 13.9308 33.8888 15.041 34.9288 17.4216C35.8232 15.041 37.8564 13.9308 40.0353 13.9308C41.5849 13.9308 43.2801 14.5659 44.3149 15.9912C45.4849 17.5765 45.2457 19.8796 45.2457 21.8987L45.2405 33.7913C45.2405 34.1683 44.9233 34.4729 44.5281 34.4729H40.8361C40.4669 34.4471 40.1705 34.1528 40.1705 33.7913V23.8042C40.1705 23.009 40.2433 21.026 40.0665 20.2721C39.7909 19.0069 38.9641 18.6506 37.8928 18.6506C36.9984 18.6506 36.0624 19.2445 35.6828 20.1946C35.3032 21.1448 35.3396 22.7353 35.3396 23.8042V33.7913C35.3396 34.1683 35.0224 34.4729 34.6272 34.4729H30.9352C30.5608 34.4471 30.2696 34.1528 30.2696 33.7913L30.2644 23.8042C30.2644 21.7025 30.6128 18.6093 27.9867 18.6093C25.3295 18.6093 25.4335 21.625 25.4335 23.8042V33.7913C25.4335 34.1683 25.1163 34.4729 24.7211 34.4729Z" fill="black"/>
<path fill-rule="evenodd" clip-rule="evenodd" d="M93.0549 13.9308C98.541 13.9308 101.51 18.6093 101.51 24.5582C101.51 30.3056 98.229 34.8654 93.0549 34.8654C87.6676 34.8654 84.7348 30.1869 84.7348 24.3568C84.7348 18.4905 87.7041 13.9308 93.0549 13.9308ZM93.0861 17.7779C90.3613 17.7779 90.1897 21.465 90.1897 23.7629C90.1897 26.066 90.1533 30.9821 93.0549 30.9821C95.9201 30.9821 96.0553 27.0162 96.0553 24.5995C96.0553 23.009 95.9877 21.1087 95.5041 19.6008C95.0881 18.2891 94.2613 17.7779 93.0861 17.7779Z" fill="black"/>
<path fill-rule="evenodd" clip-rule="evenodd" d="M108.624 34.4729H104.942C104.573 34.4471 104.277 34.1528 104.277 33.7913L104.272 14.9429C104.303 14.5969 104.61 14.3284 104.984 14.3284H108.411C108.733 14.3439 108.998 14.5608 109.071 14.8551V17.7366H109.139C110.174 15.1598 111.624 13.9308 114.178 13.9308C115.836 13.9308 117.454 14.5246 118.494 16.1513C119.461 17.6591 119.461 20.1946 119.461 22.0175V33.8791C119.419 34.2096 119.113 34.4729 118.749 34.4729H115.041C114.703 34.4471 114.422 34.1992 114.386 33.8791V23.6441C114.386 21.5837 114.625 18.568 112.072 18.568C111.172 18.568 110.345 19.167 109.934 20.0759C109.414 21.2274 109.347 22.3738 109.347 23.6441V33.7913C109.342 34.1683 109.019 34.4729 108.624 34.4729Z" fill="black"/>
<path fill-rule="evenodd" clip-rule="evenodd" d="M59.3639 25.4722C59.3639 26.9026 59.4003 28.0954 58.6723 29.3658C58.0847 30.3986 57.1487 31.0337 56.1139 31.0337C54.6943 31.0337 53.8623 29.9596 53.8623 28.3743C53.8623 25.2449 56.6859 24.6769 59.3639 24.6769V25.4722ZM63.0924 34.4213C62.848 34.6382 62.4944 34.6536 62.2188 34.5091C60.9915 33.4969 60.7679 33.027 60.0971 32.0613C58.0691 34.1166 56.6287 34.7311 54.0027 34.7311C50.8878 34.7311 48.4698 32.8256 48.4698 29.0095C48.4698 26.0299 50.0922 24.0004 52.4115 23.009C54.4187 22.1311 57.2215 21.9762 59.3639 21.7335V21.2584C59.3639 20.3857 59.4315 19.3529 58.9115 18.5989C58.4643 17.9225 57.6011 17.6436 56.8367 17.6436C55.4275 17.6436 54.1743 18.3614 53.8675 19.8486C53.8051 20.1791 53.5607 20.5044 53.2227 20.5199L49.6398 20.1378C49.3382 20.0707 49.0002 19.828 49.0886 19.3684C49.9102 15.0513 53.8415 13.75 57.3567 13.75C59.1559 13.75 61.5064 14.2251 62.926 15.578C64.7252 17.246 64.5536 19.4716 64.5536 21.8935V27.6152C64.5536 29.3348 65.2712 30.0887 65.9472 31.0182C66.1812 31.3487 66.2332 31.7463 65.9316 31.9942C65.1776 32.6191 63.836 33.7809 63.0975 34.4316L63.0924 34.4213Z" fill="black"/>
<path fill-rule="evenodd" clip-rule="evenodd" d="M10.8941 25.4721C10.8941 26.9026 10.9305 28.0954 10.2025 29.3658C9.61489 30.3985 8.68408 31.0337 7.64407 31.0337C6.22446 31.0337 5.39765 29.9596 5.39765 28.3743C5.39765 25.2449 8.22128 24.6769 10.8941 24.6769V25.4721ZM14.6225 34.4213C14.3781 34.6381 14.0245 34.6536 13.7489 34.509C12.5217 33.4969 12.3033 33.027 11.6273 32.0613C9.59929 34.1166 8.16408 34.7311 5.53285 34.7311C2.42322 34.7311 0 32.8256 0 29.0094C0 26.0299 1.62762 24.0004 3.94164 23.0089C5.94886 22.1311 8.75169 21.9762 10.8941 21.7335V21.2584C10.8941 20.3857 10.9617 19.3529 10.4469 18.5989C9.9945 17.9225 9.13129 17.6436 8.37208 17.6436C6.96287 17.6436 5.70446 18.3614 5.39765 19.8486C5.33525 20.1791 5.09085 20.5044 4.75805 20.5199L1.17001 20.1378C0.868408 20.0707 0.535604 19.828 0.618805 19.3684C1.44561 15.0513 5.37165 13.75 8.88689 13.75C10.6861 13.75 13.0365 14.2251 14.4561 15.578C16.2554 17.246 16.0838 19.4716 16.0838 21.8935V27.6152C16.0838 29.3348 16.8014 30.0887 17.4774 31.0182C17.7166 31.3487 17.7686 31.7463 17.467 31.9942C16.713 32.619 15.3714 33.7809 14.6329 34.4316L14.6225 34.4213Z" fill="black"/>
</svg>
