<svg width="178" height="53" viewBox="0 0 178 53" fill="none" xmlns="http://www.w3.org/2000/svg">
<path d="M69.5338 16.8386C69.5338 16.121 69.8177 15.4328 70.323 14.9253C70.8283 14.4179 71.5137 14.1328 72.2283 14.1328C72.9429 14.1328 73.6282 14.4179 74.1335 14.9253C74.6388 15.4328 74.9227 16.121 74.9227 16.8386C74.8967 17.5388 74.6014 18.2015 74.0989 18.6876C73.5965 19.1737 72.926 19.4453 72.2283 19.4453C71.5306 19.4453 70.86 19.1737 70.3576 18.6876C69.8551 18.2015 69.5598 17.5388 69.5338 16.8386Z" fill="#273B7D"/>
<path d="M25.3139 33.7103C22.9947 33.7103 21.381 31.8599 21.381 29.2144C21.381 26.5708 22.9946 24.7223 25.3157 24.7223C27.648 24.7223 29.2785 26.5708 29.2785 29.2144C29.2785 31.9014 27.6837 33.7103 25.3139 33.7103ZM25.3139 20.7711C20.4053 20.7711 16.8421 24.3229 16.8421 29.2144C16.8421 34.1078 20.4072 37.6578 25.3139 37.6578C30.243 37.6578 33.8193 34.1078 33.8193 29.2163C33.8193 24.3229 30.243 20.7711 25.3157 20.7711H25.3139ZM64.3156 29.6384C64.1448 29.3066 63.9289 29.0003 63.674 28.7283L63.5238 28.5719L63.6815 28.4211C63.9067 28.1818 64.1374 27.8992 64.3588 27.5713L68.6932 21.1046H63.432L60.1764 26.1638C59.9925 26.4351 59.6211 26.5708 59.0638 26.5708H58.3226V17.0063C58.3226 15.0938 57.1349 14.8338 55.8534 14.8338H53.658L53.6636 37.4091H58.3244V30.637H58.7617C59.2927 30.637 59.6529 30.6992 59.8199 30.9894L62.3905 35.8621C63.1091 37.1848 63.824 37.4091 65.1712 37.4091H68.742L66.0813 32.9924L64.3176 29.6384H64.3156ZM86.9408 20.7334C84.569 20.7334 83.0566 21.7923 82.2085 22.6873L81.9271 22.9737L81.8258 22.5837C81.5781 21.6246 80.7375 21.0989 79.4747 21.0989H77.3863L77.3995 37.4034H82.0284V29.889C82.0284 29.1541 82.1222 28.5172 82.3173 27.935C82.8315 26.1732 84.2688 25.0785 86.0644 25.0785C87.5092 25.0785 88.0741 25.8454 88.0741 27.8238V34.9256C88.0741 36.6139 88.8527 37.4034 90.5358 37.4034H92.7386L92.7312 27.0324C92.7312 22.9135 90.7291 20.7353 86.9408 20.7353V20.7334ZM72.2845 21.1046H70.091L70.106 33.7121V37.4091H72.4459L72.5284 37.4128L73.6205 37.4091H74.7051V37.4034H74.7125L74.7219 23.5824C74.7219 21.9148 73.9283 21.1065 72.2865 21.1065L72.2845 21.1046ZM43.4938 33.7103C41.1746 33.7103 39.5591 31.8599 39.5591 29.2144C39.5591 26.5708 41.1747 24.7223 43.4957 24.7223C45.8224 24.7223 47.4586 26.5708 47.4586 29.2144C47.4586 31.9014 45.8637 33.7103 43.4957 33.7103H43.4938ZM43.4938 20.7711C38.5815 20.7711 35.0164 24.3229 35.0164 29.2144C35.0164 34.1078 38.5816 37.6578 43.4957 37.6578C48.4174 37.6578 52.0011 34.1078 52.0011 29.2163C52.0011 24.3229 48.4174 20.7711 43.4957 20.7711" fill="#273B7D"/>
<path d="M102.49 32.9923C99.9588 32.9923 99.0582 30.7764 99.0582 28.698C99.0582 27.7823 99.2889 24.7995 102.248 24.7995C103.717 24.7995 105.674 25.2216 105.674 28.8507C105.674 32.2744 103.942 32.9923 102.49 32.9923ZM108.078 21.0611C107.2 21.0611 106.524 21.4135 106.185 22.056L106.057 22.3048L105.843 22.1163C105.096 21.4681 103.757 20.6975 101.582 20.6975C97.2531 20.6975 94.3392 23.9629 94.3392 28.8186C94.3392 33.6725 97.3545 37.0642 101.668 37.0642C103.141 37.0642 104.306 36.7175 105.229 36.0165L105.586 35.7471V36.1993C105.586 38.3775 104.184 39.5796 101.642 39.5796C100.405 39.5796 99.2815 39.2782 98.5272 39.0031C97.5477 38.7053 96.9698 38.9522 96.5739 39.9414L96.2061 40.8534L95.6863 42.1875L96.0072 42.3589C97.6359 43.2257 99.7543 43.7439 101.668 43.7439C105.609 43.7439 110.213 41.7183 110.213 36.0165L110.23 21.0611H108.078Z" fill="#273B7D"/>
<path d="M8.07769 33.5236L4.30998 33.5199V28.9976C4.30998 28.0291 4.68337 27.5279 5.50709 27.4111H8.07769C9.91088 27.4111 11.0967 28.5718 11.0986 30.4504C11.0967 32.3799 9.9409 33.5217 8.07769 33.5217V33.5236ZM4.30998 20.1303C4.30998 19.0883 4.74906 18.5928 5.71163 18.5287H7.64055C9.29362 18.5287 10.2843 19.5217 10.2843 21.1855C10.2843 22.4517 9.60506 23.9309 7.70056 23.9309H4.30998V20.1303ZM12.8887 25.8359L12.2075 25.4515L12.8024 24.9408C13.4947 24.3435 14.6525 23 14.6525 20.6824C14.6525 17.1325 11.913 14.8412 7.67056 14.8412H2.27787C1.67108 14.8634 1.0961 15.1192 0.672024 15.5556C0.247946 15.992 0.0073072 16.5755 0 17.1852V37.3279H7.76618C12.4815 37.3279 15.5249 34.7503 15.5249 30.7575C15.5249 28.6076 14.5418 26.7704 12.8887 25.8359Z" fill="#273B7D"/>
<path d="M112.047 34.8837C112.047 33.382 113.251 32.1685 114.736 32.1685C115.452 32.1685 116.14 32.4544 116.646 32.9632C117.153 33.4721 117.438 34.1622 117.438 34.8819C117.438 35.6015 117.153 36.2916 116.646 36.8005C116.14 37.3093 115.452 37.5952 114.736 37.5952C113.253 37.5952 112.047 36.3798 112.047 34.8819" fill="#499FDD"/>
<path d="M142.706 33.7097C140.387 33.7097 138.77 31.8594 138.77 29.2139C138.77 26.5703 140.387 24.7218 142.706 24.7218C145.037 24.7218 146.671 26.5703 146.671 29.2139C146.671 31.9008 145.076 33.7097 142.706 33.7097ZM142.706 20.7705C137.794 20.7705 134.231 24.3223 134.231 29.2139C134.231 34.1073 137.794 37.6572 142.706 37.6572C147.63 37.6572 151.212 34.1073 151.212 29.2157C151.212 24.3223 147.628 20.7705 142.706 20.7705Z" fill="#499FDD"/>
<path d="M171.888 20.7875C170.932 20.791 169.989 21.0101 169.129 21.4286C168.269 21.847 167.514 22.4541 166.919 23.205L166.585 23.6309L166.322 23.1541C165.463 21.5845 163.988 20.7875 161.937 20.7875C159.785 20.7875 158.342 21.9934 157.672 22.7095L157.233 23.1862L157.064 22.5587C156.82 21.6543 156.019 21.1587 154.807 21.1587H152.861L152.843 37.401H157.261V30.2314C157.261 29.6021 157.34 28.9821 157.496 28.3321C157.918 26.5986 159.078 24.735 161.027 24.9216C162.228 25.0384 162.817 25.9711 162.817 27.7725V37.401H167.268V30.2314C167.268 29.4457 167.341 28.8578 167.518 28.2699C167.874 26.6155 169.086 24.9197 170.966 24.9197C172.329 24.9197 172.831 25.6922 172.831 27.7725V35.0268C172.831 36.6662 173.559 37.401 175.194 37.401H177.273L177.276 27.0319C177.276 22.8885 175.46 20.7875 171.888 20.7875ZM131.67 31.7614C131.657 31.7784 129.756 33.7908 127.251 33.7908C124.969 33.7908 122.665 32.3851 122.665 29.2478C122.665 26.5383 124.451 24.6446 127.011 24.6446C127.84 24.6446 128.786 24.9423 128.934 25.4454L128.955 25.5302C129.049 25.8765 129.255 26.1819 129.54 26.3989C129.825 26.6159 130.173 26.7325 130.531 26.7305L132.951 26.7342V24.6088C132.951 21.805 129.399 20.7875 127.011 20.7875C121.9 20.7875 118.192 24.3601 118.192 29.2817C118.192 34.1997 121.858 37.7684 126.917 37.7684C131.304 37.7684 133.691 34.8723 133.713 34.8441L133.841 34.6858L131.923 31.492L131.67 31.7614Z" fill="#499FDD"/>
</svg>
