<svg width="177" height="53" viewBox="0 0 177 53" fill="none" xmlns="http://www.w3.org/2000/svg">
<path d="M48.918 15.9305H57.1948C62.4715 15.9305 66.8305 18.9764 66.8305 25.9308V27.3921C66.8305 34.3994 62.7538 37.5509 57.3536 37.5509H48.918V15.9305ZM53.5417 19.8567V33.6071H57.0889C60.089 33.6071 62.1009 31.6528 62.1009 27.3041V26.1597C62.1009 21.811 59.9831 19.8567 56.9301 19.8567H53.5417ZM69.2835 20.068H72.9895L73.5896 24.135C74.2955 21.3708 76.0955 19.8919 79.3604 19.8919H80.5075V24.5575H78.6015C74.8425 24.5575 73.9249 25.8604 73.9249 29.5577V37.6038H69.3541V20.068H69.2835ZM81.4252 29.188V28.695C81.4252 22.8321 85.1841 19.6278 90.302 19.6278C95.5257 19.6278 99.1788 22.8321 99.1788 28.695V29.188C99.1788 34.9452 95.6316 38.0439 90.302 38.0439C84.6371 37.9911 81.4252 34.9628 81.4252 29.188ZM94.5022 29.1352V28.695C94.5022 25.4379 92.8609 23.4836 90.249 23.4836C87.6901 23.4836 85.9959 25.2794 85.9959 28.695V29.1352C85.9959 32.2867 87.6372 34.0825 90.249 34.0825C92.8609 34.0297 94.5022 32.2867 94.5022 29.1352ZM101.579 20.068H105.391L105.832 23.3779C106.75 21.1595 108.709 19.6278 111.603 19.6278C116.068 19.6278 119.015 22.8321 119.015 28.7654V29.2584C119.015 35.0156 115.75 38.0615 111.603 38.0615C108.832 38.0615 106.926 36.8115 105.991 34.8044V43.6603H101.526L101.579 20.068ZM114.374 29.1352V28.7478C114.374 25.2618 112.573 23.5364 110.173 23.5364C107.614 23.5364 105.92 25.4907 105.92 28.7478V29.0823C105.92 32.181 107.562 34.1353 110.12 34.1353C112.75 34.0825 114.374 32.4099 114.374 29.1352ZM125.774 34.3642L125.386 37.5685H121.468V14.2051H125.933V23.1666C126.921 20.8778 128.88 19.6278 131.651 19.6278C135.851 19.6806 138.957 22.568 138.957 28.3781V28.9239C138.957 34.7339 136.01 38.0615 131.545 38.0615C128.598 37.9911 126.692 36.6354 125.774 34.3642ZM134.263 28.9239V28.4837C134.263 25.2794 132.515 23.4836 130.062 23.4836C127.556 23.4836 125.809 25.4907 125.809 28.5365V28.9239C125.809 32.181 127.504 34.0825 130.009 34.0825C132.692 34.0825 134.263 32.4099 134.263 28.9239ZM140.916 29.188V28.695C140.916 22.8321 144.675 19.6278 149.793 19.6278C155.016 19.6278 158.669 22.8321 158.669 28.695V29.188C158.669 34.9452 155.069 38.0439 149.793 38.0439C144.128 37.9911 140.916 34.9628 140.916 29.188ZM154.028 29.1352V28.695C154.028 25.4379 152.387 23.4836 149.775 23.4836C147.216 23.4836 145.522 25.2794 145.522 28.695V29.1352C145.522 32.2867 147.163 34.0825 149.775 34.0825C152.405 34.0297 154.028 32.2867 154.028 29.1352ZM164.652 28.4837L158.493 20.068H163.77L167.317 25.3322L170.917 20.068H176.141L169.893 28.4309L176.476 37.5685H171.305L167.282 31.7585L163.364 37.5685H157.964L164.652 28.4837Z" fill="black"/>
<path d="M20.4714 15.9313L10.2357 22.4456L20.4714 28.9599L10.2357 35.4742L0 28.9247L10.2357 22.4104L0 15.9313L10.2357 9.41699L20.4714 15.9313ZM10.1828 37.5693L20.4185 31.055L30.6542 37.5693L20.4185 44.0837L10.1828 37.5693ZM20.4714 28.9247L30.7071 22.4104L20.4714 15.9313L30.6542 9.41699L40.8899 15.9313L30.6542 22.4456L40.8899 28.9599L30.6542 35.4742L20.4714 28.9247Z" fill="#0061FF"/>
</svg>
