<svg width="126" height="53" viewBox="0 0 126 53" fill="none" xmlns="http://www.w3.org/2000/svg">
<path d="M8.99609 7.25H24.8208V45.1667L8.99609 7.25Z" fill="#FA0C00"/>
<path d="M3.41874 21.2246L13.5041 45.1665H6.88718L3.87294 37.544H-3.50781L3.41874 21.2246Z" fill="#FA0C00"/>
<path d="M50.6704 31.3626L52.5388 36.7232C52.6007 36.8575 52.6936 36.9195 52.8588 36.9195H56.4511C56.6472 36.9195 56.6782 36.8265 56.6472 36.6303L49.2252 16.0039C49.1942 15.8386 49.1632 15.8076 48.9981 15.8076H44.5387C44.4148 15.8076 44.3425 15.9006 44.3425 16.0348C44.2806 17.1194 44.1877 17.4499 44.0535 17.7701L37.4366 36.5993C37.4056 36.8265 37.4779 36.9195 37.6637 36.9195H40.8741C41.0702 36.9195 41.1631 36.8575 41.2354 36.6613L43.0006 31.3626H50.6704ZM44.0225 27.8612C44.9929 24.9279 46.2729 21.1682 46.789 19.0198H46.82C47.46 21.2715 48.9671 25.7335 49.6484 27.8612H44.0225Z" fill="#FA0C00"/>
<path d="M66.1896 37.2393C68.1199 37.2393 70.1741 36.8881 72.2593 35.9895C72.4245 35.9275 72.4555 35.8552 72.4555 35.7003C72.3935 35.1219 72.3213 34.2853 72.3213 33.6449V14.2269C72.3213 14.103 72.3213 14.041 72.1664 14.041H68.667C68.5328 14.041 68.4709 14.103 68.4709 14.2682V20.8476C67.9238 20.7857 67.5418 20.7547 67.0876 20.7547C61.4411 20.7547 57.9727 24.4833 57.9727 29.1416C57.9727 34.5435 61.534 37.2393 66.1896 37.2393ZM68.4709 33.6449C67.8928 33.8308 67.2528 33.9031 66.6025 33.9031C64.0424 33.9031 61.9469 32.4571 61.9469 28.9453C61.9469 25.8364 64.1044 23.9979 66.9638 23.9979C67.5418 23.9979 68.0477 24.0599 68.4709 24.2251V33.6449Z" fill="#FA0C00"/>
<path d="M83.6165 20.7549C78.7958 20.7549 75.8125 24.4526 75.8125 29.0178C75.8125 33.0977 78.1867 37.2395 83.5442 37.2395C88.0759 37.2395 91.2553 33.9033 91.2553 28.9146C91.2553 24.5145 88.5611 20.7549 83.6165 20.7549ZM83.4203 23.9981C86.1455 23.9981 87.3017 26.3427 87.3017 29.0178C87.3017 32.323 85.5984 33.9653 83.6165 33.9653C81.17 33.9653 79.7248 31.9099 79.7248 28.9455C79.7248 25.8986 81.2629 23.9981 83.4203 23.9981Z" fill="#FA0C00"/>
<path d="M94.8755 14.041C94.7413 14.041 94.6484 14.103 94.6484 14.2682V36.2477C94.6484 36.3407 94.7413 36.5059 94.8755 36.5369C96.4136 37.012 98.024 37.2393 99.6859 37.2393C104.445 37.2393 109.069 34.2853 109.069 28.3359C109.069 24.0289 106.117 20.7547 101.492 20.7547C100.429 20.7547 99.4382 20.9199 98.5711 21.2091L98.5298 14.2992C98.5298 14.072 98.4678 14.041 98.2407 14.041H94.8755ZM105.116 28.7284C105.116 32.2918 102.68 33.9651 100.047 33.9651C99.5001 33.9651 99.0149 33.9341 98.5711 33.7998V24.4214C99.0769 24.2251 99.6859 24.0599 100.811 24.0599C103.35 24.0599 105.116 25.6711 105.116 28.7284Z" fill="#FA0C00"/>
<path d="M122.128 29.8855C123.697 29.8855 124.987 29.8545 125.431 29.7512C125.596 29.7202 125.658 29.6582 125.689 29.524C125.782 29.1728 125.823 28.4394 125.823 27.5408C125.823 24.4835 123.986 20.7549 119.237 20.7549C114.386 20.7549 111.691 24.7108 111.691 29.1728C111.691 33.1287 113.777 37.2395 119.619 37.2395C121.808 37.2395 123.222 36.8883 124.44 36.3099C124.564 36.2479 124.626 36.1447 124.626 35.9587V33.2836C124.626 33.1287 124.533 33.0977 124.44 33.1597C123.222 33.6761 121.901 33.9343 120.455 33.9343C117.183 33.9343 115.697 32.1268 115.604 29.8855H122.128ZM115.604 27.1174C115.862 25.5474 116.853 23.8432 119.072 23.8432C121.519 23.8432 122.159 25.8986 122.159 26.8282C122.159 26.8591 122.159 26.9934 122.159 27.0864C122.024 27.1174 121.612 27.1174 120.393 27.1174H115.604Z" fill="#FA0C00"/>
</svg>
