<svg width="36" height="43" viewBox="0 0 36 43" fill="none" xmlns="http://www.w3.org/2000/svg">
<path d="M29.7147 22.6946C29.6945 19.2519 31.2543 16.6573 34.4041 14.7441C32.6424 12.2202 29.9772 10.832 26.4638 10.5645C23.1373 10.302 19.4977 12.5029 18.1651 12.5029C16.7568 12.5029 13.5362 10.6554 11.0022 10.6554C5.77256 10.7361 0.214844 14.8249 0.214844 23.1438C0.214844 25.6021 0.664105 28.1412 1.56263 30.756C2.76402 34.1987 7.09511 42.6337 11.613 42.4974C13.9754 42.4419 15.6462 40.8215 18.7204 40.8215C21.7037 40.8215 23.2483 42.4974 25.8833 42.4974C30.4416 42.4318 34.3587 34.764 35.4995 31.3113C29.3865 28.4289 29.7147 22.8712 29.7147 22.6946ZM24.4093 7.29852C26.9686 4.25969 26.7364 1.49346 26.6607 0.499023C24.3992 0.630268 21.7844 2.03863 20.2953 3.77005C18.6548 5.62767 17.6906 7.92446 17.8976 10.514C20.3407 10.7008 22.5719 9.44387 24.4093 7.29852Z" fill="white"/>
</svg>
