<svg width="25" height="24" viewBox="0 0 25 24" fill="none" xmlns="http://www.w3.org/2000/svg">
<path d="M6.46133 6.00004C6.23273 6.24655 6.10593 6.57182 6.02616 6.84872C5.94106 7.14412 5.88304 7.48201 5.84241 7.82995C5.76099 8.52723 5.74064 9.34488 5.74725 10.1101C5.7539 10.8797 5.78809 11.6169 5.82044 12.1603C5.83664 12.4324 5.85245 12.657 5.86424 12.8141C5.87014 12.8926 5.87505 12.9544 5.8785 12.9968L5.88254 13.0456L5.88365 13.0585L5.88408 13.0636C5.92003 13.4762 6.28369 13.7816 6.69634 13.7457C7.10897 13.7097 7.41429 13.3455 7.37837 12.9329L7.37816 12.9304L7.37723 12.9195L7.37355 12.8749C7.37033 12.8355 7.36568 12.7769 7.36003 12.7017C7.34873 12.5513 7.33347 12.3345 7.31779 12.0711C7.28638 11.5435 7.25356 10.8332 7.2472 10.0972C7.2408 9.35682 7.26145 8.61058 7.33229 8.00392C7.33627 7.96985 7.34038 7.93648 7.34461 7.9038L17.9697 18.5289C18.2626 18.8217 18.7374 18.8217 19.0303 18.5289C19.3232 18.236 19.3232 17.7611 19.0303 17.4682L8.40281 6.84068C8.41716 6.83891 8.43166 6.83717 8.4463 6.83546C9.04613 6.76517 9.79656 6.74417 10.5466 6.74993C11.2919 6.75566 12.0156 6.78755 12.5546 6.81818C12.8237 6.83348 13.0456 6.84839 13.1997 6.85945C13.2768 6.86497 13.3369 6.86953 13.3774 6.87268L13.4231 6.8763L13.4376 6.87748C13.8504 6.91176 14.2128 6.60496 14.2471 6.19218C14.2815 5.77939 13.9741 5.4169 13.5614 5.38259L13.5568 5.38221L13.5436 5.38114L13.4937 5.3772C13.4504 5.37383 13.3873 5.36905 13.307 5.36329C13.1466 5.35178 12.9172 5.33637 12.6398 5.3206C12.0859 5.28911 11.3359 5.25595 10.5581 5.24998C9.78489 5.24404 8.96268 5.26468 8.27172 5.34565C7.92745 5.386 7.59297 5.44381 7.30386 5.52964C7.0404 5.60786 6.70202 5.74049 6.46133 6.00004Z" fill="#161616"/>
</svg>
