<svg width="26" height="26" viewBox="0 0 26 26" fill="none" xmlns="http://www.w3.org/2000/svg">
<path d="M13 0.5C6.1125 0.5 0.5 6.1125 0.5 13C0.5 19.8875 6.1125 25.5 13 25.5C19.8875 25.5 25.5 19.8875 25.5 13C25.5 6.1125 19.8875 0.5 13 0.5ZM15.2375 16.75C15.6 17.1125 15.6 17.7125 15.2375 18.075C15.05 18.2625 14.8125 18.35 14.575 18.35C14.3375 18.35 14.1 18.2625 13.9125 18.075L9.5 13.6625C9.1375 13.3 9.1375 12.7 9.5 12.3375L13.9125 7.925C14.275 7.5625 14.875 7.5625 15.2375 7.925C15.6 8.2875 15.6 8.8875 15.2375 9.25L11.4875 13L15.2375 16.75Z" fill="#1B1F27"/>
</svg>
