<svg width="16" height="17" viewBox="0 0 16 17" fill="none" xmlns="http://www.w3.org/2000/svg">
<path d="M6.22543 11.1606C8.32971 11.0438 10 9.30049 10 7.16699C10 4.95785 8.20914 3.16699 6 3.16699C3.79086 3.16699 2 4.95785 2 7.16699C2 7.95413 2.22729 8.68813 2.61993 9.30697L2.33724 10.155L2.33679 10.1563C2.22852 10.4811 2.17436 10.6436 2.21292 10.7517C2.24653 10.846 2.32112 10.9202 2.41536 10.9539C2.52315 10.9923 2.6845 10.9385 3.00713 10.831L3.01172 10.8296L3.86003 10.5469C4.47887 10.9395 5.2129 11.1669 6.00004 11.1669C6.07568 11.1669 6.15082 11.1648 6.22543 11.1606ZM6.22543 11.1606C6.22548 11.1608 6.22537 11.1605 6.22543 11.1606ZM6.22543 11.1606C6.77271 12.7176 8.25606 13.8338 10.0001 13.8338C10.7872 13.8338 11.5211 13.6062 12.1399 13.2135L12.988 13.4962L12.9897 13.4966C13.3144 13.6048 13.4772 13.6591 13.5854 13.6205C13.6796 13.5869 13.7532 13.5126 13.7869 13.4184C13.8255 13.3101 13.7715 13.1474 13.6629 12.8217L13.3802 11.9736L13.4749 11.8167C13.8092 11.2323 13.9996 10.5552 13.9996 9.83366C13.9996 7.62453 12.2091 5.83366 10 5.83366L9.85026 5.83642L9.77474 5.84011" stroke="#808080" stroke-width="1.33333" stroke-linecap="round" stroke-linejoin="round"/>
</svg>
