<svg width="24" height="23" viewBox="0 0 24 23" fill="none" xmlns="http://www.w3.org/2000/svg">
<path d="M8.48823 0.118891C8.04131 0.244585 7.66422 0.528564 7.35231 0.984793C7.13816 1.30136 7.00316 1.59931 6.72383 2.3721C6.47244 3.05644 6.31416 3.38232 6.20708 3.43819C6.05811 3.51733 5.80672 3.54526 4.88961 3.58716C3.63731 3.64768 3.07866 3.81062 2.63174 4.26219C2.30586 4.58341 2.13827 4.98843 2.10568 5.50518C2.07775 6.00331 2.13362 6.36177 2.38035 7.22302C2.47811 7.56752 2.58053 7.98185 2.59915 8.14013L2.64105 8.42411L2.40363 8.65223C2.27328 8.77792 1.93809 9.05259 1.66342 9.26674C1.01632 9.76486 0.560092 10.2537 0.364565 10.654C0.215593 10.952 0.210938 10.9892 0.210938 11.5013C0.210938 12.0181 0.215593 12.0507 0.369221 12.3626C0.560092 12.7536 1.14667 13.3588 1.81705 13.8616C2.05913 14.0478 2.34311 14.2806 2.44087 14.383C2.62243 14.5692 2.62243 14.5692 2.5945 14.8625C2.57588 15.0255 2.49208 15.3979 2.40363 15.6912C2.15224 16.5524 2.08241 16.9574 2.10568 17.4649C2.1243 17.842 2.15224 17.963 2.27328 18.2191C2.45018 18.6055 2.73882 18.8941 3.12521 19.0803C3.59541 19.3131 3.90266 19.3689 4.91289 19.4155C5.7881 19.4574 6.10932 19.4993 6.23502 19.5738C6.31416 19.625 6.50969 20.03 6.66797 20.4769C7.1661 21.9061 7.53853 22.4555 8.21821 22.772C8.7629 23.0281 9.35413 23.0001 10.0385 22.6789C10.1968 22.6044 10.6111 22.353 10.9556 22.1203C11.3047 21.8829 11.7051 21.6408 11.8448 21.5756L12.1055 21.4592L12.3569 21.5709C12.4965 21.6361 12.8969 21.8782 13.246 22.111C14.2702 22.7953 14.5914 22.9257 15.2479 22.9303C15.6203 22.9303 15.6994 22.9164 15.9741 22.786C16.6678 22.4555 16.9936 21.9946 17.4871 20.6306C17.7106 20.0114 17.8921 19.6296 17.9759 19.5738C18.1016 19.4993 18.4228 19.4574 19.2981 19.4155C19.8567 19.3922 20.3409 19.3457 20.5085 19.2991C21.2254 19.1129 21.6863 18.7637 21.9377 18.2237C22.054 17.977 22.0866 17.8373 22.1053 17.4975C22.1332 16.9993 22.0773 16.6409 21.8306 15.7796C21.7328 15.4351 21.6304 15.0208 21.6118 14.8625L21.5699 14.5785L21.8073 14.3504C21.9377 14.2247 22.2728 13.9501 22.5475 13.7359C23.1946 13.2331 23.6508 12.7443 23.8464 12.3486C23.9907 12.0507 24 12.0088 24 11.5013C24 10.9939 23.9907 10.952 23.8464 10.654C23.6462 10.2444 23.1853 9.76021 22.4777 9.20622C22.1611 8.96414 21.8352 8.68947 21.7468 8.59636C21.5932 8.43808 21.5885 8.42877 21.6164 8.14013C21.6351 7.97719 21.7189 7.60476 21.8073 7.31147C22.0587 6.45022 22.1285 6.0452 22.1053 5.53777C22.0866 5.16068 22.0587 5.03964 21.9377 4.78359C21.6863 4.23891 21.2254 3.88976 20.5085 3.70354C20.3409 3.66164 19.8614 3.61044 19.3213 3.58716C18.4042 3.54526 18.1528 3.51733 18.0039 3.43819C17.8968 3.38232 17.7385 3.05644 17.4871 2.3721C17.2078 1.59931 17.0728 1.30136 16.8586 0.984793C16.2814 0.146822 15.4434 -0.137156 14.489 0.188721C14.1818 0.295795 13.5254 0.672882 13.0598 1.01273C12.9062 1.12445 12.6269 1.29205 12.4407 1.38516L12.1055 1.55275L11.7656 1.38516C11.5841 1.29205 11.2861 1.11049 11.1046 0.980139C10.6344 0.640295 10.0897 0.328382 9.73587 0.198032C9.34948 0.0583706 8.82342 0.0211277 8.48823 0.118891ZM16.2395 8.14479C16.7236 8.39618 16.9331 8.92689 16.719 9.38312C16.5933 9.64382 11.4491 14.7741 11.2116 14.8765C11.0068 14.9603 10.802 14.9649 10.5459 14.8951C10.3923 14.8532 10.1316 14.6158 8.99567 13.4892C7.59439 12.0926 7.40352 11.8551 7.40352 11.5293C7.40352 10.9892 7.84578 10.5283 8.35788 10.5237C8.72565 10.5237 8.95377 10.6866 9.94071 11.6829L10.8718 12.6186L13.0831 10.4073C14.4797 9.01535 15.3549 8.17272 15.4574 8.13082C15.6855 8.03306 16.03 8.03771 16.2395 8.14479Z" fill="#8D6E3D"/>
</svg>
