<svg width="35" height="35" viewBox="0 0 35 35" fill="none" xmlns="http://www.w3.org/2000/svg">
<path d="M26.307 19.7611C25.6945 20.359 25.3445 21.2194 25.432 22.1381C25.5633 23.7131 27.007 24.8652 28.582 24.8652H31.3529V26.6006C31.3529 29.6194 28.8883 32.084 25.8695 32.084H9.12786C6.10911 32.084 3.64453 29.6194 3.64453 26.6006V16.7861C3.64453 13.7673 6.10911 11.3027 9.12786 11.3027H25.8695C28.8883 11.3027 31.3529 13.7673 31.3529 16.7861V18.8861H28.407C27.5904 18.8861 26.8466 19.2069 26.307 19.7611Z" stroke="#3C757D" stroke-width="2" stroke-linecap="round" stroke-linejoin="round"/>
<path d="M3.64453 18.0981V11.4336C3.64453 9.69822 4.70911 8.15232 6.32786 7.53982L17.907 3.16482C19.7154 2.47941 21.6549 3.82112 21.6549 5.7607V11.3023" stroke="#3C757D" stroke-width="2" stroke-linecap="round" stroke-linejoin="round"/>
<path d="M32.8979 20.3732V23.3774C32.8979 24.1795 32.2563 24.8357 31.4396 24.8649H28.5813C27.0063 24.8649 25.5625 23.7128 25.4313 22.1378C25.3438 21.219 25.6938 20.3586 26.3063 19.7607C26.8459 19.2065 27.5896 18.8857 28.4063 18.8857H31.4396C32.2563 18.9149 32.8979 19.5711 32.8979 20.3732Z" stroke="#3C757D" stroke-width="2" stroke-linecap="round" stroke-linejoin="round"/>
<path d="M10.207 17.5H20.4154" stroke="#3C757D" stroke-width="2" stroke-linecap="round" stroke-linejoin="round"/>
</svg>
