<svg width="40" height="40" viewBox="0 0 40 40" fill="none" xmlns="http://www.w3.org/2000/svg">
<g filter="url(#filter0_d_947_67492)">
<rect x="5" y="3" width="30" height="30" rx="8" fill="white" fill-opacity="0.86"/>
<path d="M24.66 25H15.34C14.0522 25 13 23.9478 13 22.66V13.34C13 12.0522 14.0522 11 15.34 11H24.66C25.9478 11 27 12.0522 27 13.34V22.66C27 23.9536 25.9536 25 24.66 25Z" fill="#3C757D"/>
<path d="M20.0036 21.597C19.0434 21.597 18.1408 21.2233 17.4623 20.5449C16.7839 19.8664 16.4102 18.9637 16.4102 18.0036C16.4102 17.0434 16.7839 16.1408 17.4623 15.4623C18.1408 14.7839 19.0434 14.4102 20.0036 14.4102C20.9637 14.4102 21.8664 14.7839 22.5449 15.4623C23.2233 16.1408 23.597 17.0434 23.597 18.0036C23.597 18.9637 23.2233 19.8664 22.5449 20.5449C21.8607 21.2233 20.9637 21.597 20.0036 21.597ZM20.0036 15.1748C18.4455 15.1748 17.1748 16.4397 17.1748 18.0036C17.1748 19.5617 18.4397 20.8323 20.0036 20.8323C21.5617 20.8323 22.8323 19.5674 22.8323 18.0036C22.8266 16.4455 21.5617 15.1748 20.0036 15.1748Z" fill="white"/>
<path d="M24.2954 14.292C24.6765 14.292 24.9854 13.9831 24.9854 13.6021C24.9854 13.221 24.6765 12.9121 24.2954 12.9121C23.9144 12.9121 23.6055 13.221 23.6055 13.6021C23.6055 13.9831 23.9144 14.292 24.2954 14.292Z" fill="white"/>
</g>
<defs>
<filter id="filter0_d_947_67492" x="0" y="0" width="40" height="40" filterUnits="userSpaceOnUse" color-interpolation-filters="sRGB">
<feFlood flood-opacity="0" result="BackgroundImageFix"/>
<feColorMatrix in="SourceAlpha" type="matrix" values="0 0 0 0 0 0 0 0 0 0 0 0 0 0 0 0 0 0 127 0" result="hardAlpha"/>
<feOffset dy="2"/>
<feGaussianBlur stdDeviation="2.5"/>
<feComposite in2="hardAlpha" operator="out"/>
<feColorMatrix type="matrix" values="0 0 0 0 0.583333 0 0 0 0 0.583333 0 0 0 0 0.583333 0 0 0 0.25 0"/>
<feBlend mode="normal" in2="BackgroundImageFix" result="effect1_dropShadow_947_67492"/>
<feBlend mode="normal" in="SourceGraphic" in2="effect1_dropShadow_947_67492" result="shape"/>
</filter>
</defs>
</svg>
