<svg width="36" height="35" viewBox="0 0 36 35" fill="none" xmlns="http://www.w3.org/2000/svg">
<path d="M17.9981 11.5059L16.4377 14.2184C16.0877 14.8163 16.3794 15.3121 17.0648 15.3121H18.9169C19.6169 15.3121 19.894 15.8079 19.544 16.4059L17.9981 19.1184" stroke="#3C757D" stroke-width="2" stroke-linecap="round" stroke-linejoin="round"/>
<path d="M12.6026 26.3088V24.6171C9.24844 22.59 6.49219 18.6379 6.49219 14.4379C6.49219 7.21917 13.1276 1.56084 20.6234 3.19417C23.9193 3.92334 26.8068 6.11084 28.3089 9.12959C31.3568 15.2546 28.1484 21.7588 23.438 24.6025V26.2942C23.438 26.7171 23.5984 27.6942 22.038 27.6942H14.0026C12.3984 27.7088 12.6026 27.0817 12.6026 26.3088Z" stroke="#3C757D" stroke-width="2" stroke-linecap="round" stroke-linejoin="round"/>
<path d="M12.8945 32.083C16.2341 31.1351 19.7633 31.1351 23.1029 32.083" stroke="#3C757D" stroke-width="2" stroke-linecap="round" stroke-linejoin="round"/>
</svg>
