<svg width="45" height="45" viewBox="0 0 45 45" fill="none" xmlns="http://www.w3.org/2000/svg">
<g filter="url(#filter0_d_949_60467)">
<rect x="5" y="3" width="35" height="35" rx="17.5" fill="white" fill-opacity="0.5"/>
<path d="M18.4051 28V17.8789H15.1895V28H18.4051ZM16.798 16.4973C17.919 16.4973 18.617 15.7201 18.617 14.7489C18.596 13.7555 17.919 13 16.8193 13C15.7188 13 15 13.7555 15 14.7488C15 15.72 15.6977 16.4972 16.7769 16.4972L16.798 16.4973ZM20.1849 28H23.4002V22.3485C23.4002 22.0465 23.4211 21.7436 23.5061 21.5278C23.7384 20.9232 24.2675 20.2973 25.156 20.2973C26.3192 20.2973 26.7848 21.2254 26.7848 22.5861V28H30V22.1969C30 19.0883 28.4139 17.6416 26.2984 17.6416C24.564 17.6416 23.8022 18.6558 23.379 19.3466H23.4004V17.8793H20.1851C20.227 18.8288 20.1849 28 20.1849 28Z" fill="#3C757D"/>
</g>
<defs>
<filter id="filter0_d_949_60467" x="0" y="0" width="45" height="45" filterUnits="userSpaceOnUse" color-interpolation-filters="sRGB">
<feFlood flood-opacity="0" result="BackgroundImageFix"/>
<feColorMatrix in="SourceAlpha" type="matrix" values="0 0 0 0 0 0 0 0 0 0 0 0 0 0 0 0 0 0 127 0" result="hardAlpha"/>
<feOffset dy="2"/>
<feGaussianBlur stdDeviation="2.5"/>
<feComposite in2="hardAlpha" operator="out"/>
<feColorMatrix type="matrix" values="0 0 0 0 0.583333 0 0 0 0 0.583333 0 0 0 0 0.583333 0 0 0 0.25 0"/>
<feBlend mode="normal" in2="BackgroundImageFix" result="effect1_dropShadow_949_60467"/>
<feBlend mode="normal" in="SourceGraphic" in2="effect1_dropShadow_949_60467" result="shape"/>
</filter>
</defs>
</svg>
