<svg width="34" height="34" viewBox="0 0 34 34" fill="none" xmlns="http://www.w3.org/2000/svg">
<g filter="url(#filter0_d_947_67527)">
<rect x="5" y="3" width="24" height="24" rx="8" fill="white" fill-opacity="0.86"/>
<g clip-path="url(#clip0_947_67527)">
<path d="M14.7578 19.1118C15.1724 19.6647 15.5498 20.2471 15.8871 20.8547C16.1752 21.4262 16.2953 21.8137 16.5058 22.5022C16.6349 22.8827 16.7516 22.9962 17.0024 22.9962C17.2758 22.9962 17.3998 22.8031 17.4956 22.5043C17.6946 21.854 17.8507 21.3578 18.0971 20.8889C18.5804 19.9835 19.1811 19.1791 19.7712 18.4059C19.931 18.1871 20.9639 16.9122 21.429 15.9063C21.429 15.9063 22.0005 14.8014 22.0005 13.2581C22.0005 11.8146 21.4369 10.8135 21.4369 10.8135L19.814 11.2682L18.8285 13.9842L18.5846 14.3587L18.5359 14.4266L18.4711 14.5115L18.3572 14.6471L18.1946 14.8173L17.317 15.5654L15.1228 16.891L14.7578 19.1118Z" fill="#3C757D"/>
<path d="M12.4922 15.7203C13.0277 17.0001 14.0604 18.1251 14.759 19.1125L18.47 14.513C18.47 14.513 17.9472 15.2284 16.9988 15.2284C15.9425 15.2284 15.0891 14.3458 15.0891 13.2328C15.0891 12.4696 15.5279 11.9453 15.5279 11.9453L13.0088 12.6516L12.4922 15.7203Z" fill="#3C757D"/>
<path d="M18.5134 8.23633C19.7459 8.65212 20.8008 9.52502 21.4389 10.8122L18.4731 14.5102C18.4731 14.5102 18.9119 13.9764 18.9119 13.218C18.9119 12.0791 17.9954 11.2283 17.0053 11.2283C16.069 11.2283 15.5312 11.9426 15.5312 11.9426V9.61285L18.5134 8.23633Z" fill="#3C757D"/>
<path d="M13.1719 9.8705C13.908 8.94896 15.2033 8 16.9891 8C17.8555 8 18.5082 8.238 18.5082 8.238L15.5264 11.9448H13.4137L13.1719 9.8705Z" fill="#3C757D"/>
<path d="M12.4927 15.72C12.4927 15.72 12 14.7105 12 13.2481C12 11.866 12.5135 10.6578 13.1725 9.87012L15.5286 11.9447L12.4927 15.72Z" fill="#3C757D"/>
</g>
</g>
<defs>
<filter id="filter0_d_947_67527" x="0" y="0" width="34" height="34" filterUnits="userSpaceOnUse" color-interpolation-filters="sRGB">
<feFlood flood-opacity="0" result="BackgroundImageFix"/>
<feColorMatrix in="SourceAlpha" type="matrix" values="0 0 0 0 0 0 0 0 0 0 0 0 0 0 0 0 0 0 127 0" result="hardAlpha"/>
<feOffset dy="2"/>
<feGaussianBlur stdDeviation="2.5"/>
<feComposite in2="hardAlpha" operator="out"/>
<feColorMatrix type="matrix" values="0 0 0 0 0.583333 0 0 0 0 0.583333 0 0 0 0 0.583333 0 0 0 0.25 0"/>
<feBlend mode="normal" in2="BackgroundImageFix" result="effect1_dropShadow_947_67527"/>
<feBlend mode="normal" in="SourceGraphic" in2="effect1_dropShadow_947_67527" result="shape"/>
</filter>
<clipPath id="clip0_947_67527">
<rect width="10" height="15" fill="white" transform="translate(12 8)"/>
</clipPath>
</defs>
</svg>
