<svg width="35" height="35" viewBox="0 0 35 35" fill="none" xmlns="http://www.w3.org/2000/svg">
<path d="M32.0846 14.5837V18.9587C32.0846 24.792 29.168 27.7087 23.3346 27.7087H22.6055C22.1534 27.7087 21.7159 27.9274 21.4388 28.292L19.2513 31.2087C18.2888 32.492 16.7138 32.492 15.7513 31.2087L13.5638 28.292C13.3305 27.9712 12.7909 27.7087 12.3971 27.7087H11.668C5.83464 27.7087 2.91797 26.2503 2.91797 18.9587V11.667C2.91797 5.83366 5.83464 2.91699 11.668 2.91699H20.418" stroke="#3C757D" stroke-width="2" stroke-miterlimit="10" stroke-linecap="round" stroke-linejoin="round"/>
<path d="M28.4388 10.2087C30.4523 10.2087 32.0846 8.57636 32.0846 6.56283C32.0846 4.54929 30.4523 2.91699 28.4388 2.91699C26.4253 2.91699 24.793 4.54929 24.793 6.56283C24.793 8.57636 26.4253 10.2087 28.4388 10.2087Z" stroke="#3C757D" stroke-width="2" stroke-linecap="round" stroke-linejoin="round"/>
<path d="M23.3266 16.0417H23.3397" stroke="#3C757D" stroke-width="2" stroke-linecap="round" stroke-linejoin="round"/>
<path d="M17.4946 16.0417H17.5077" stroke="#3C757D" stroke-width="2" stroke-linecap="round" stroke-linejoin="round"/>
<path d="M11.6587 16.0417H11.6718" stroke="#3C757D" stroke-width="2" stroke-linecap="round" stroke-linejoin="round"/>
</svg>
