<svg width="35" height="35" viewBox="0 0 35 35" fill="none" xmlns="http://www.w3.org/2000/svg">
<path fill-rule="evenodd" clip-rule="evenodd" d="M28.9093 14.998H20.5922L25.5502 7.04526C25.6213 6.93116 25.6502 6.8067 25.6341 6.68304C25.618 6.55939 25.5575 6.44042 25.458 6.3368C25.3586 6.23319 25.2233 6.14818 25.0642 6.08939C24.9052 6.03061 24.7274 5.99989 24.5468 6H13.6407C13.4271 5.99987 13.2181 6.04286 13.0398 6.12364C12.8614 6.20442 12.7214 6.31943 12.6373 6.4544L6.09358 16.952C6.02244 17.0661 5.99361 17.1906 6.00969 17.3143C6.02578 17.4379 6.08626 17.5569 6.18573 17.6605C6.28519 17.7641 6.42051 17.8491 6.57955 17.9079C6.7386 17.9667 6.91638 17.9974 7.09695 17.9973H12.4933L6.08485 28.9658C5.64861 29.7112 6.99443 30.3425 7.84511 29.7906L18.8036 22.6777L29.6182 16.3177C29.7876 16.2181 29.9086 16.0851 29.9648 15.9368C30.021 15.7884 30.0097 15.6318 29.9325 15.488C29.8552 15.3442 29.7157 15.2202 29.5328 15.1325C29.3499 15.0449 29.1323 14.998 28.9093 14.998ZM18.9389 16.4976H25.9559L17.3444 21.5635L9.96091 26.3549L15.1195 17.5264C15.1858 17.4126 15.2106 17.2894 15.1916 17.1676C15.1726 17.0457 15.1104 16.9289 15.0106 16.8274C14.9107 16.7258 14.7761 16.6427 14.6187 16.5852C14.4612 16.5277 14.2857 16.4977 14.1074 16.4976H8.75032L14.3605 7.49966H22.8935L17.9355 15.4524C17.8644 15.5665 17.8355 15.6909 17.8516 15.8146C17.8677 15.9382 17.9282 16.0572 18.0277 16.1608C18.1271 16.2644 18.2624 16.3495 18.4215 16.4082C18.5805 16.467 18.7583 16.4977 18.9389 16.4976Z" fill="#3C757D"/>
</svg>
