<svg width="34" height="35" viewBox="0 0 34 35" fill="none" xmlns="http://www.w3.org/2000/svg">
<g filter="url(#filter0_d_947_67517)">
<rect x="5" y="3.5" width="24" height="24" rx="8" fill="white" fill-opacity="0.86"/>
<path d="M18.6372 9.17927C18.3276 9.08995 18.0043 9.26846 17.915 9.578C17.8256 9.88753 18.0041 10.2109 18.3137 10.3002C20.1845 10.8401 21.6602 12.3157 22.2001 14.1864C22.2894 14.496 22.6128 14.6745 22.9223 14.5851C23.2319 14.4958 23.4104 14.1725 23.321 13.8629C22.6699 11.607 20.8931 9.83029 18.6372 9.17927Z" fill="#3C757D"/>
<path d="M18.3219 12.0214C18.0254 11.8955 17.6829 12.0338 17.557 12.3303C17.431 12.6268 17.5694 12.9693 17.8659 13.0952C18.557 13.3887 19.1116 13.9433 19.4051 14.6344C19.531 14.9309 19.8735 15.0693 20.17 14.9433C20.4666 14.8174 20.6049 14.4749 20.4789 14.1784C20.0673 13.2091 19.2912 12.433 18.3219 12.0214Z" fill="#3C757D"/>
<path d="M13.7862 9.90723C13.6226 9.6138 13.3594 9.3917 13.0288 9.32338C12.6948 9.25434 12.3591 9.35618 12.0831 9.58108C11.0819 10.3971 10.4444 11.7045 10.7211 13.0761C10.8912 13.9191 11.1745 14.751 11.7515 15.757C12.9094 17.7761 14.7219 19.5896 16.7434 20.7489C17.7494 21.3259 18.5813 21.6092 19.4243 21.7793C20.7959 22.056 22.1033 21.4185 22.9193 20.4173C23.1442 20.1413 23.2461 19.8056 23.177 19.4716C23.1087 19.141 22.8866 18.8778 22.5932 18.7142L21.6583 18.1931C21.3141 18.0012 21.0244 17.8397 20.7725 17.7343C20.5053 17.6224 20.2419 17.5559 19.9506 17.5863C19.6593 17.6167 19.4152 17.7361 19.1769 17.9007C18.9522 18.0558 18.702 18.2736 18.4047 18.5325L17.5249 19.2984C17.3672 19.4357 17.2884 19.5043 17.1899 19.5106C17.0914 19.5168 17.0072 19.4606 16.8389 19.3481C15.4033 18.3885 14.1111 17.0959 13.1523 15.6615C13.0398 15.4931 12.9836 15.409 12.9899 15.3105C12.9961 15.2119 13.0648 15.1331 13.202 14.9755L13.9679 14.0957C14.2268 13.7984 14.4446 13.5482 14.5998 13.3235C14.7644 13.0852 14.8837 12.8411 14.9141 12.5498C14.9445 12.2585 14.878 11.9951 14.7661 11.7279C14.6607 11.476 14.4992 11.1863 14.3072 10.842L13.7862 9.90723Z" fill="#3C757D"/>
</g>
<defs>
<filter id="filter0_d_947_67517" x="0" y="0.5" width="34" height="34" filterUnits="userSpaceOnUse" color-interpolation-filters="sRGB">
<feFlood flood-opacity="0" result="BackgroundImageFix"/>
<feColorMatrix in="SourceAlpha" type="matrix" values="0 0 0 0 0 0 0 0 0 0 0 0 0 0 0 0 0 0 127 0" result="hardAlpha"/>
<feOffset dy="2"/>
<feGaussianBlur stdDeviation="2.5"/>
<feComposite in2="hardAlpha" operator="out"/>
<feColorMatrix type="matrix" values="0 0 0 0 0.583333 0 0 0 0 0.583333 0 0 0 0 0.583333 0 0 0 0.25 0"/>
<feBlend mode="normal" in2="BackgroundImageFix" result="effect1_dropShadow_947_67517"/>
<feBlend mode="normal" in="SourceGraphic" in2="effect1_dropShadow_947_67517" result="shape"/>
</filter>
</defs>
</svg>
