<svg width="24" height="24" viewBox="0 0 24 24" fill="none" xmlns="http://www.w3.org/2000/svg">
<path d="M8.09195 11.63H3.40195C3.48195 6.95997 4.40195 6.18997 7.27195 4.48997C7.60195 4.28997 7.71195 3.86997 7.51195 3.52997C7.32195 3.19997 6.89195 3.08997 6.56195 3.28997C3.18195 5.28997 2.00195 6.50997 2.00195 12.32V17.71C2.00195 19.42 3.39195 20.8 5.09195 20.8H8.09195C9.85195 20.8 11.182 19.47 11.182 17.71V14.71C11.182 12.96 9.85195 11.63 8.09195 11.63Z" fill="#8D6E3D"/>
<path d="M18.9115 11.63H14.2215C14.3015 6.95997 15.2215 6.18997 18.0915 4.48997C18.4215 4.28997 18.5315 3.86997 18.3315 3.52997C18.1315 3.19997 17.7115 3.08997 17.3715 3.28997C13.9915 5.28997 12.8115 6.50997 12.8115 12.33V17.72C12.8115 19.43 14.2015 20.81 15.9015 20.81H18.9015C20.6615 20.81 21.9915 19.48 21.9915 17.72V14.72C22.0015 12.96 20.6715 11.63 18.9115 11.63Z" fill="#8D6E3D"/>
</svg>
