<svg width="34" height="34" viewBox="0 0 34 34" fill="none" xmlns="http://www.w3.org/2000/svg">
<g filter="url(#filter0_d_947_67522)">
<rect x="5" y="3" width="24" height="24" rx="8" fill="white" fill-opacity="0.86"/>
<path d="M13.4987 15.583C11.8887 15.583 10.582 16.8838 10.582 18.4997C10.582 20.1155 11.8887 21.4163 13.4987 21.4163C15.1087 21.4163 16.4154 20.1097 16.4154 18.4997C16.4154 16.8897 15.1145 15.583 13.4987 15.583ZM12.3087 17.3097H13.4987C13.7204 17.3097 13.8954 17.4905 13.8954 17.7063C13.8954 17.9222 13.7204 18.103 13.4987 18.103H12.3087C12.087 18.103 11.912 17.9222 11.912 17.7063C11.912 17.4905 12.087 17.3097 12.3087 17.3097ZM14.6887 19.6897H12.3087C12.087 19.6897 11.912 19.5088 11.912 19.293C11.912 19.0772 12.0929 18.8963 12.3087 18.8963H14.6945C14.9162 18.8963 15.0912 19.0772 15.0912 19.293C15.0912 19.5088 14.9104 19.6897 14.6887 19.6897Z" fill="#3C757D"/>
<path d="M19.918 9.75H14.0846C12.3346 9.75 11.168 10.625 11.168 12.6667V14.4983C11.168 14.9242 11.6055 15.1925 11.9963 15.0233C12.638 14.7433 13.3671 14.6383 14.1313 14.7608C15.6596 15.0117 16.908 16.2192 17.2171 17.7358C17.3046 18.1792 17.3163 18.6108 17.258 19.025C17.2113 19.3692 17.4913 19.6725 17.8355 19.6725H19.918C21.668 19.6725 22.8346 18.7975 22.8346 16.7558V12.6667C22.8346 10.625 21.668 9.75 19.918 9.75ZM20.1921 13.0108L18.3663 14.4692C17.9813 14.7783 17.4913 14.93 17.0013 14.93C16.5113 14.93 16.0155 14.7783 15.6363 14.4692L13.8105 13.0108C13.6238 12.8592 13.5946 12.5792 13.7405 12.3925C13.8921 12.2058 14.1663 12.1708 14.353 12.3225L16.1788 13.7808C16.6221 14.1367 17.3746 14.1367 17.818 13.7808L19.6438 12.3225C19.8305 12.1708 20.1105 12.2 20.2563 12.3925C20.408 12.5792 20.3788 12.8592 20.1921 13.0108Z" fill="#3C757D"/>
</g>
<defs>
<filter id="filter0_d_947_67522" x="0" y="0" width="34" height="34" filterUnits="userSpaceOnUse" color-interpolation-filters="sRGB">
<feFlood flood-opacity="0" result="BackgroundImageFix"/>
<feColorMatrix in="SourceAlpha" type="matrix" values="0 0 0 0 0 0 0 0 0 0 0 0 0 0 0 0 0 0 127 0" result="hardAlpha"/>
<feOffset dy="2"/>
<feGaussianBlur stdDeviation="2.5"/>
<feComposite in2="hardAlpha" operator="out"/>
<feColorMatrix type="matrix" values="0 0 0 0 0.583333 0 0 0 0 0.583333 0 0 0 0 0.583333 0 0 0 0.25 0"/>
<feBlend mode="normal" in2="BackgroundImageFix" result="effect1_dropShadow_947_67522"/>
<feBlend mode="normal" in="SourceGraphic" in2="effect1_dropShadow_947_67522" result="shape"/>
</filter>
</defs>
</svg>
