<svg width="26" height="26" viewBox="0 0 26 26" fill="none" xmlns="http://www.w3.org/2000/svg">
<path d="M13 0.5C6.1125 0.5 0.5 6.1125 0.5 13C0.5 19.8875 6.1125 25.5 13 25.5C19.8875 25.5 25.5 19.8875 25.5 13C25.5 6.1125 19.8875 0.5 13 0.5ZM16.4875 13.6625L12.075 18.075C11.8875 18.2625 11.65 18.35 11.4125 18.35C11.175 18.35 10.9375 18.2625 10.75 18.075C10.3875 17.7125 10.3875 17.1125 10.75 16.75L14.5 13L10.75 9.25C10.3875 8.8875 10.3875 8.2875 10.75 7.925C11.1125 7.5625 11.7125 7.5625 12.075 7.925L16.4875 12.3375C16.8625 12.7 16.8625 13.3 16.4875 13.6625Z" fill="#E8EAEC"/>
</svg>
