<svg width="40" height="40" viewBox="0 0 40 40" fill="none" xmlns="http://www.w3.org/2000/svg">
<g filter="url(#filter0_d_947_67504)">
<rect x="5" y="3" width="30" height="30" rx="8" fill="white" fill-opacity="0.86"/>
<path fill-rule="evenodd" clip-rule="evenodd" d="M20.0013 11.7285C16.538 11.7285 13.7305 14.5361 13.7305 17.9993C13.7305 18.8632 13.9054 19.6873 14.2222 20.4374C14.3053 20.6341 14.3613 20.7671 14.3987 20.8692C14.4369 20.9735 14.4422 21.0112 14.4429 21.0209C14.4467 21.0757 14.4328 21.1501 14.3383 21.5037L13.7453 23.7196C13.705 23.8705 13.7481 24.0316 13.8586 24.142C13.9691 24.2525 14.1301 24.2957 14.2811 24.2553L16.497 23.6624C16.8505 23.5678 16.925 23.554 16.9798 23.5577C16.9895 23.5584 17.0272 23.5638 17.1314 23.6019C17.2336 23.6394 17.3665 23.6954 17.5633 23.7785C18.3133 24.0953 19.1375 24.2702 20.0013 24.2702C23.4646 24.2702 26.2721 21.4626 26.2721 17.9993C26.2721 14.5361 23.4646 11.7285 20.0013 11.7285ZM18.2355 14.6452L18.1814 14.6451C17.9016 14.6447 17.6435 14.6442 17.3897 14.7602C17.2052 14.8444 17.0483 14.9875 16.9341 15.1305C16.8198 15.2734 16.7147 15.458 16.6732 15.6565C16.6162 15.9285 16.6632 16.1355 16.7135 16.3569L16.7204 16.3875C16.9739 17.51 17.5664 18.6107 18.4781 19.5224C19.3897 20.434 20.4904 21.0266 21.6129 21.28L21.6435 21.287C21.8649 21.3372 22.0719 21.3842 22.3439 21.3272C22.5424 21.2857 22.727 21.1806 22.8699 21.0664C23.0129 20.9521 23.156 20.7952 23.2402 20.6107C23.3562 20.3569 23.3558 20.0988 23.3553 19.819L23.3552 19.7649C23.3552 19.6364 23.3513 19.4199 23.2679 19.2198C23.1683 18.9808 22.963 18.7838 22.6414 18.7333L22.638 18.7328C22.2394 18.6703 21.9362 18.6228 21.7219 18.5917C21.6146 18.5761 21.5256 18.564 21.4559 18.5561C21.3987 18.5496 21.3199 18.5414 21.254 18.5453C20.9684 18.562 20.7413 18.6778 20.5654 18.7984C20.4534 18.8751 20.3318 18.9778 20.2361 19.0586C20.1985 19.0904 20.165 19.1187 20.1376 19.1408L20.0924 19.1771C19.9202 19.3158 19.8341 19.3851 19.7279 19.383C19.6217 19.3808 19.5438 19.3126 19.388 19.1762C19.2889 19.0894 19.1917 18.9986 19.0968 18.9036C19.0018 18.8087 18.911 18.7115 18.8242 18.6124C18.6878 18.4566 18.6197 18.3787 18.6175 18.2725C18.6153 18.1663 18.6846 18.0802 18.8233 17.908L18.8596 17.8629C18.8817 17.8355 18.91 17.8019 18.9418 17.7643C19.0226 17.6687 19.1253 17.547 19.2021 17.435C19.3226 17.2591 19.4385 17.032 19.4552 16.7464C19.459 16.6805 19.4508 16.6017 19.4443 16.5445C19.4364 16.4748 19.4243 16.3858 19.4087 16.2785C19.3776 16.0641 19.3301 15.7611 19.2676 15.3624L19.2671 15.359C19.2167 15.0374 19.0197 14.8322 18.7806 14.7325C18.5805 14.6492 18.364 14.6452 18.2355 14.6452Z" fill="#3C757D"/>
</g>
<defs>
<filter id="filter0_d_947_67504" x="0" y="0" width="40" height="40" filterUnits="userSpaceOnUse" color-interpolation-filters="sRGB">
<feFlood flood-opacity="0" result="BackgroundImageFix"/>
<feColorMatrix in="SourceAlpha" type="matrix" values="0 0 0 0 0 0 0 0 0 0 0 0 0 0 0 0 0 0 127 0" result="hardAlpha"/>
<feOffset dy="2"/>
<feGaussianBlur stdDeviation="2.5"/>
<feComposite in2="hardAlpha" operator="out"/>
<feColorMatrix type="matrix" values="0 0 0 0 0.583333 0 0 0 0 0.583333 0 0 0 0 0.583333 0 0 0 0.25 0"/>
<feBlend mode="normal" in2="BackgroundImageFix" result="effect1_dropShadow_947_67504"/>
<feBlend mode="normal" in="SourceGraphic" in2="effect1_dropShadow_947_67504" result="shape"/>
</filter>
</defs>
</svg>
